<?xml version="1.0" standalone="no"?>
<!DOCTYPE svg PUBLIC "-//W3C//DTD SVG 20010904//EN"
 "http://www.w3.org/TR/2001/REC-SVG-20010904/DTD/svg10.dtd">
<svg version="1.0" xmlns="http://www.w3.org/2000/svg"
 width="465.000000pt" height="581.000000pt" viewBox="0 0 465.000000 581.000000"
 preserveAspectRatio="xMidYMid meet">

<g transform="translate(0.000000,581.000000) scale(0.100000,-0.100000)"
fill="#000000" stroke="none">
<path d="M2289 5351 c-26 -14 -55 -37 -65 -53 -11 -15 -27 -28 -36 -28 -10 0
-18 -5 -18 -11 0 -8 -4 -8 -12 -1 -7 6 -49 19 -93 31 -72 18 -86 19 -140 7
-77 -17 -96 -26 -88 -39 4 -6 -2 -8 -15 -5 -12 4 -22 2 -22 -2 0 -5 -10 -12
-22 -16 -39 -12 -150 -90 -209 -146 -62 -59 -50 -54 24 10 40 34 147 102 160
102 2 0 4 -6 4 -14 0 -8 -6 -12 -14 -9 -7 3 -16 -2 -19 -11 -3 -9 -14 -16 -24
-16 -19 0 -43 -23 -34 -33 3 -3 -11 -15 -33 -26 -47 -26 -73 -45 -73 -57 0 -5
-14 -20 -31 -34 -26 -22 -82 -90 -114 -141 -5 -9 -32 -44 -58 -79 -26 -35 -52
-71 -57 -79 -8 -14 -11 -14 -19 -2 -8 12 -12 12 -25 2 -9 -8 -16 -18 -16 -24
0 -7 4 -7 12 1 15 15 28 16 28 2 0 -11 -56 -88 -100 -137 -15 -17 -31 -46 -35
-65 -4 -18 -14 -42 -21 -53 -7 -12 -25 -56 -38 -99 -14 -43 -32 -86 -40 -95
-18 -20 -102 -197 -111 -233 -4 -16 -11 -28 -15 -28 -4 0 -12 -21 -18 -47 -14
-65 -26 -107 -51 -178 -25 -74 -77 -247 -102 -340 -55 -200 -67 -450 -31 -632
12 -57 18 -117 15 -135 -2 -18 0 -49 6 -68 l10 -35 -2 42 c0 23 2 45 5 48 3 4
20 -31 37 -77 17 -46 40 -101 51 -123 38 -78 63 -175 45 -175 -3 0 -17 12 -31
28 l-24 27 17 -38 c17 -37 17 -39 -5 -80 -52 -96 -87 -133 -151 -157 -34 -12
-60 -24 -58 -26 2 -2 25 0 50 5 41 7 45 6 38 -8 -5 -9 -19 -25 -30 -35 -17
-15 -19 -22 -9 -28 8 -6 5 -7 -10 -3 -20 6 -22 4 -17 -18 5 -20 2 -25 -16 -30
-13 -4 -20 -9 -17 -12 9 -10 116 14 163 36 49 23 54 16 50 -68 -1 -34 1 -63 6
-63 5 0 2 -12 -8 -26 -17 -27 -17 -27 7 -19 l25 7 -25 -26 c-18 -20 -21 -29
-12 -35 9 -5 4 -14 -15 -31 -31 -27 -16 -40 19 -16 39 27 48 20 49 -36 1 -29
4 -64 8 -78 l7 -25 8 23 c4 12 11 20 16 17 5 -3 14 4 20 15 16 30 25 25 61
-29 17 -28 43 -55 58 -60 14 -6 40 -22 56 -35 39 -33 33 -42 -81 -129 -112
-86 -210 -133 -484 -234 -52 -19 -104 -38 -115 -43 -11 -5 -87 -37 -170 -70
-82 -34 -176 -74 -207 -88 l-58 -26 0 -418 0 -418 2325 0 2325 0 0 503 0 503
-172 39 c-178 39 -276 66 -483 130 -66 21 -165 50 -220 65 -188 51 -280 82
-325 109 -41 24 -94 49 -172 80 -39 15 -36 34 3 26 17 -4 48 -8 70 -9 21 -1
41 -5 45 -9 15 -15 43 -5 77 27 31 29 44 34 81 34 63 -1 96 22 96 68 0 29 8
43 42 75 53 49 64 50 36 3 -23 -39 -31 -87 -14 -81 13 4 63 88 81 136 53 141
67 174 81 197 10 14 20 21 24 17 9 -9 -4 -186 -15 -203 -3 -6 -10 -24 -15 -40
-6 -22 -5 -28 5 -24 25 10 46 97 51 214 5 111 12 148 41 218 l14 33 35 -20
c47 -28 49 -27 24 14 l-22 35 23 73 c23 70 25 96 28 317 l2 75 18 -40 c11 -22
20 -32 20 -23 1 10 -11 43 -25 75 -21 45 -29 84 -36 173 -5 63 -11 129 -14
145 -2 17 -8 75 -13 130 -8 106 -55 370 -70 395 -4 8 -16 51 -26 95 -47 208
-123 493 -182 680 -46 144 -165 374 -254 490 -39 50 -102 133 -142 186 -41 54
-105 123 -149 160 -42 35 -77 71 -77 79 -1 8 -20 24 -43 35 -23 11 -54 30 -68
41 -35 30 -130 80 -209 111 -68 26 -96 29 -366 36 -89 2 -105 -1 -146 -22z
m-494 -141 c-3 -5 -12 -10 -18 -10 -7 0 -6 4 3 10 19 12 23 12 15 0z m412
-322 c35 -11 65 -24 68 -28 3 -5 13 -6 22 -3 11 4 14 2 9 -5 -7 -12 51 -32 95
-32 15 0 37 -12 54 -30 16 -17 35 -28 41 -26 21 8 64 -18 64 -39 1 -18 1 -19
11 -2 12 21 29 22 29 2 0 -8 5 -15 10 -15 6 0 9 -5 8 -11 -2 -6 18 -25 44 -43
28 -19 52 -45 61 -66 17 -40 59 -80 85 -80 35 0 21 63 -25 108 -15 15 -18 82
-4 82 26 0 138 -113 188 -190 67 -102 75 -119 108 -235 14 -49 37 -126 50
-170 13 -44 36 -120 51 -170 14 -49 30 -94 35 -99 5 -6 9 -18 9 -28 0 -10 11
-50 24 -90 13 -40 27 -104 31 -143 4 -38 23 -122 43 -185 35 -110 37 -120 35
-245 -2 -71 -10 -168 -19 -215 -8 -47 -18 -110 -21 -140 -3 -31 -12 -59 -19
-63 -8 -4 -14 -16 -14 -26 0 -10 -7 -24 -14 -31 -8 -6 -23 -33 -32 -58 -23
-59 -46 -81 -80 -74 -21 4 -25 2 -20 -9 4 -8 1 -6 -7 4 -11 13 -16 15 -19 5
-3 -7 5 -20 16 -29 12 -10 18 -21 13 -25 -4 -4 -14 1 -22 12 -13 18 -14 18 -8
-5 5 -20 3 -22 -16 -16 -14 4 -23 2 -27 -9 -3 -9 -11 -13 -18 -9 -6 3 -3 -3 7
-14 29 -33 30 -92 1 -63 -6 6 -9 -10 -10 -45 0 -30 4 -55 8 -55 4 0 8 -24 8
-54 0 -30 4 -66 10 -80 5 -14 6 -26 1 -26 -5 0 -14 20 -20 45 -6 25 -14 45
-17 45 -5 0 3 -57 13 -94 3 -12 1 -16 -6 -12 -8 5 -8 0 1 -18 6 -14 15 -26 20
-26 13 0 9 -27 -5 -42 -8 -7 -17 -26 -21 -41 -3 -15 -11 -27 -16 -27 -6 0 -10
-7 -10 -16 0 -14 3 -14 15 -4 14 11 14 10 5 -16 l-10 -29 20 24 c11 13 20 33
21 45 1 19 2 18 8 -4 5 -20 1 -30 -21 -48 -20 -17 -26 -31 -24 -50 2 -15 1
-19 -1 -9 -5 21 -12 21 -33 2 -16 -14 -18 -12 -23 36 -4 28 -11 57 -18 65 -6
8 -9 23 -6 33 2 11 -6 43 -20 71 -13 28 -23 63 -22 78 2 15 1 32 -3 37 -3 6
-6 39 -6 74 0 35 -5 68 -10 73 -7 7 -9 -2 -7 -28 1 -22 1 -31 -2 -21 -2 9 -9
17 -14 17 -5 0 -9 11 -9 24 0 13 -6 36 -14 51 -12 24 -15 25 -24 10 -7 -14
-10 -10 -15 22 -4 21 -14 47 -23 58 -8 11 -12 13 -8 5 4 -8 -5 -4 -19 9 -15
13 -33 21 -41 18 -10 -4 -16 -1 -16 8 0 8 -4 15 -10 15 -5 0 -10 7 -10 15 0 8
-4 15 -10 15 -5 0 -13 1 -17 3 -4 1 -6 -18 -4 -43 4 -59 -8 -47 -14 15 -5 49
-18 75 -40 75 -7 0 -18 7 -25 15 -11 13 -10 14 6 9 12 -5 8 2 -10 16 -34 28
-81 37 -72 14 4 -10 2 -12 -6 -8 -8 5 -9 2 -5 -9 3 -10 4 -17 1 -17 -2 0 -9
11 -14 25 -9 25 -30 35 -30 14 0 -6 -8 -8 -20 -4 -26 8 -61 -11 -54 -30 10
-26 -12 -16 -24 10 -18 38 -15 51 14 64 30 13 29 17 -21 107 -19 34 -46 69
-60 78 -25 16 -29 16 -78 0 -29 -9 -71 -27 -94 -40 -23 -13 -45 -24 -49 -24
-16 0 18 165 39 186 4 4 7 22 7 41 0 50 -23 41 -50 -19 -13 -29 -42 -80 -65
-113 -48 -70 -56 -87 -62 -137 -5 -43 11 -57 38 -32 12 11 19 13 19 5 0 -7 7
-10 18 -7 22 7 60 -23 57 -45 -2 -12 5 -15 32 -12 l35 2 -27 -20 c-14 -12 -24
-24 -21 -26 10 -11 -15 -43 -34 -43 -10 0 -23 -6 -27 -14 -10 -17 -53 -31 -53
-18 0 6 6 12 13 15 6 2 9 7 6 11 -3 3 -20 -5 -37 -18 -17 -12 -28 -27 -24 -31
4 -5 1 -5 -6 -1 -8 5 -21 1 -32 -9 -10 -9 -23 -14 -29 -11 -5 4 -16 -3 -25
-15 -8 -12 -19 -18 -25 -14 -6 3 -11 0 -11 -7 0 -7 -9 -19 -21 -26 -12 -8 -18
-19 -15 -28 3 -8 -6 -38 -19 -66 -19 -40 -22 -54 -13 -60 9 -6 4 -8 -12 -6
-14 2 -24 9 -22 17 1 7 -7 15 -19 18 -14 4 -17 8 -8 13 9 6 8 12 -5 25 -16 16
-16 18 1 31 15 11 16 13 2 14 -16 0 -23 30 -7 30 4 0 8 -4 8 -10 0 -5 4 -10 9
-10 5 0 7 16 5 36 -2 20 0 42 7 50 8 10 5 12 -15 8 -33 -6 -68 26 -54 50 6 10
5 16 -2 16 -14 0 -13 16 3 32 8 7 16 29 19 49 5 28 2 38 -13 47 -10 7 -22 12
-26 12 -5 0 -1 -5 7 -10 9 -5 17 -25 18 -45 2 -21 -1 -34 -7 -31 -5 3 -7 14
-4 25 2 10 -3 25 -11 34 -20 20 -22 59 -2 51 10 -4 14 2 13 18 0 13 3 31 8 42
7 16 6 17 -14 7 -12 -7 -18 -17 -15 -23 5 -7 0 -9 -16 -5 -14 3 -28 0 -37 -9
-9 -8 -18 -12 -21 -9 -4 3 0 10 8 15 8 5 12 10 10 12 -30 19 -50 26 -54 19 -3
-5 1 -14 9 -21 8 -7 15 -20 15 -29 -1 -14 -2 -14 -14 2 -10 13 -15 15 -18 5
-7 -18 -39 9 -37 31 1 9 -1 24 -6 34 -5 13 -1 25 14 40 l22 22 5 -22 c5 -20
24 -33 24 -18 0 19 -45 77 -53 69 -11 -11 -18 36 -8 54 10 19 -3 164 -18 190
-5 9 -5 29 0 46 12 41 11 79 -1 71 -14 -9 -13 -2 11 77 19 67 43 94 59 69 11
-18 72 58 64 81 -4 13 0 18 15 18 10 0 26 3 35 6 9 3 16 1 16 -5 0 -6 -6 -11
-14 -11 -8 0 -18 -4 -21 -10 -4 -6 3 -6 21 0 19 8 30 7 41 -2 11 -9 16 -9 24
3 5 8 9 20 9 27 0 6 11 12 25 12 15 0 25 6 25 15 0 12 28 35 43 35 3 0 8 -15
11 -34 9 -47 30 -61 92 -60 61 0 89 19 99 65 4 16 10 29 14 29 13 0 49 -44 60
-73 6 -15 19 -30 28 -34 10 -4 28 -13 40 -20 19 -13 20 -16 7 -41 -15 -29 -19
-62 -6 -62 4 0 22 4 39 9 32 9 32 9 26 -22 l-6 -32 24 25 c13 13 32 49 41 80
25 78 23 190 -3 174 -5 -3 -9 2 -9 10 0 9 5 16 10 16 6 0 10 7 10 15 0 8 -7
15 -15 15 -13 0 -14 4 -5 20 13 24 -12 80 -35 80 -8 0 -15 4 -15 8 0 4 -16 14
-35 21 -19 7 -41 19 -49 27 -8 8 -41 19 -73 25 -88 15 -187 40 -199 50 -18 15
-113 6 -118 -11 -2 -8 -4 -5 -5 8 -1 14 -5 20 -12 17 -22 -15 -133 -35 -141
-27 -11 11 1 42 16 42 15 0 16 71 1 83 -6 4 -4 11 5 17 8 5 15 15 15 22 3 46
37 198 47 204 5 3 4 12 -2 19 -13 15 5 63 31 82 11 8 15 21 12 33 -3 12 2 29
12 40 10 11 19 35 20 52 3 43 14 77 35 108 9 14 22 39 28 56 15 47 96 153 136
181 20 13 36 30 36 38 0 9 10 15 24 15 13 0 26 5 28 10 2 6 16 13 32 16 16 3
38 11 49 19 23 16 64 11 154 -17z m-1236 -945 c-65 -127 -84 -135 -26 -10 45
98 78 153 82 140 2 -6 -23 -64 -56 -130z m0 84 c-10 -9 -11 -8 -5 6 3 10 9 15
12 12 3 -3 0 -11 -7 -18z m466 -149 c-3 -8 -6 -5 -6 6 -1 11 2 17 5 13 3 -3 4
-12 1 -19z m143 -103 c-29 -16 -60 -19 -60 -6 0 10 27 17 65 19 17 1 17 -1 -5
-13z m-163 -37 c-3 -8 -6 -5 -6 6 -1 11 2 17 5 13 3 -3 4 -12 1 -19z m215 12
c2 -5 32 -12 68 -15 67 -5 198 -18 215 -21 6 -1 18 -2 28 -3 9 0 17 -5 17 -9
0 -13 -163 -36 -194 -28 -27 7 -53 -4 -149 -59 -26 -15 -51 -25 -54 -21 -8 8
27 46 40 43 6 -1 13 6 15 16 3 14 -1 18 -15 14 -10 -3 -34 -8 -54 -11 -31 -5
-37 -3 -42 13 -5 21 10 31 49 31 16 0 28 9 39 30 16 30 30 38 37 20z m-42 -10
c0 -5 -2 -10 -4 -10 -3 0 -8 5 -11 10 -3 6 -1 10 4 10 6 0 11 -4 11 -10z m-50
-11 c13 -9 13 -10 -1 -6 -9 3 -22 0 -28 -6 -13 -13 -26 -3 -16 12 8 14 26 14
45 0z m447 -84 c39 -16 73 -50 73 -72 0 -9 -3 -13 -7 -9 -5 4 -8 13 -8 19 0 7
-9 12 -21 12 -11 0 -28 8 -38 18 -10 9 -24 17 -32 17 -8 0 -14 5 -14 10 0 6
-7 10 -16 8 -10 -2 -19 3 -21 10 -5 14 28 9 84 -13z m-67 -50 c0 -8 -4 -15
-10 -15 -5 0 -10 7 -10 15 0 8 5 15 10 15 6 0 10 -7 10 -15z m-110 -5 c0 -5
-4 -10 -10 -10 -5 0 -10 5 -10 10 0 6 5 10 10 10 6 0 10 -4 10 -10z m300 -70
c23 -45 24 -50 10 -50 -5 0 -12 11 -16 25 -3 13 -12 29 -20 36 -12 10 -11 29
1 29 3 0 14 -18 25 -40z m-720 -90 c0 -5 -5 -10 -11 -10 -5 0 -7 5 -4 10 3 6
8 10 11 10 2 0 4 -4 4 -10z m820 -9 c0 -5 -7 -12 -16 -15 -14 -5 -15 -4 -4 9
14 17 20 19 20 6z m-1310 -658 c0 -12 -4 -25 -10 -28 -6 -4 -10 11 -10 37 0
31 3 39 10 28 5 -8 10 -25 10 -37z m653 -8 c4 -8 2 -17 -3 -20 -6 -4 -10 3
-10 14 0 25 6 27 13 6z m-625 -117 c16 -100 24 -188 19 -188 -23 0 -66 215
-51 254 11 28 21 8 32 -66z m2327 -58 c3 -5 1 -10 -4 -10 -6 0 -11 5 -11 10 0
6 2 10 4 10 3 0 8 -4 11 -10z m-872 -30 c3 -11 1 -23 -4 -26 -5 -3 -9 1 -9 10
0 8 -3 22 -7 32 -4 11 -3 15 4 11 6 -4 13 -16 16 -27z m-137 -36 c-9 -8 -16
-25 -17 -37 0 -13 -3 -16 -6 -9 -3 8 3 31 13 53 11 22 20 32 22 24 2 -8 -4
-22 -12 -31z m194 36 c0 -5 -4 -10 -10 -10 -5 0 -10 5 -10 10 0 6 5 10 10 10
6 0 10 -4 10 -10z m98 -58 c0 -20 5 -50 11 -65 13 -34 14 -47 2 -28 -7 11 -10
9 -16 -8 -6 -20 -35 -30 -35 -12 0 5 -3 18 -6 28 -5 17 -5 17 9 0 12 -15 16
-15 27 -3 6 9 9 19 6 25 -11 17 -16 112 -7 106 6 -3 10 -22 9 -43z m51 4 c12
-18 21 -41 21 -50 0 -22 -20 -21 -20 2 0 9 -7 26 -15 36 -14 18 -20 46 -11 46
2 0 14 -15 25 -34z m501 -36 c0 -5 -4 -10 -10 -10 -5 0 -10 5 -10 10 0 6 5 10
10 10 6 0 10 -4 10 -10z m-2143 -42 c-3 -8 -6 -5 -6 6 -1 11 2 17 5 13 3 -3 4
-12 1 -19z m2160 0 c24 -22 31 -48 12 -48 -5 0 -7 5 -3 11 3 6 -6 22 -22 35
-16 13 -25 23 -20 24 6 0 20 -10 33 -22z m-461 -44 c2 -38 -7 -53 -17 -28 -12
31 -10 66 4 62 6 -3 13 -18 13 -34z m-302 -23 c-9 -11 -21 13 -16 32 6 22 6
22 12 -3 4 -14 6 -27 4 -29z m-1374 23 c0 -8 -5 -12 -10 -9 -6 4 -8 11 -5 16
9 14 15 11 15 -7z m1615 -4 c4 -6 -1 -7 -11 -3 -14 5 -16 3 -11 -11 4 -10 7
-23 8 -29 0 -7 4 -3 9 8 5 11 9 14 9 6 1 -8 8 -19 17 -26 13 -9 6 -11 -37 -10
-99 2 -109 4 -109 21 0 10 6 13 19 9 26 -8 71 14 64 31 -6 16 32 20 42 4z
m491 -47 c-4 -4 -11 -1 -16 7 -16 25 -11 35 7 17 9 -9 13 -20 9 -24z m-659 5
c6 16 23 15 23 -2 0 -17 -24 -28 -45 -20 -16 7 -19 17 -8 27 4 4 11 2 16 -5 7
-10 10 -10 14 0z m833 -19 c-5 -18 -5 -40 1 -55 5 -14 9 -31 8 -37 0 -7 -6 4
-13 23 -13 36 -10 100 4 100 5 0 5 -14 0 -31z m-1586 -30 c16 -8 26 -22 29
-43 3 -17 8 -41 12 -53 5 -15 3 -23 -4 -23 -6 0 -10 5 -8 11 1 6 -9 18 -23 27
l-25 17 22 -29 c13 -15 21 -32 18 -36 -3 -4 5 -11 18 -15 13 -4 17 -8 9 -12
-6 -2 -10 -9 -6 -14 3 -5 0 -9 -6 -9 -7 0 -10 7 -6 15 4 10 -1 15 -15 15 -14
0 -19 5 -16 14 3 8 -5 24 -19 37 -13 12 -24 28 -24 36 0 7 -4 13 -8 13 -5 0
-7 14 -4 30 5 32 17 36 56 19z m2356 -13 c0 -14 -4 -28 -10 -31 -6 -4 -10 7
-10 24 0 17 5 31 10 31 6 0 10 -11 10 -24z m-2280 -13 c0 -2 -5 -14 -12 -26
l-12 -22 -6 25 c-4 14 -5 28 -3 32 4 7 33 0 33 -9z m905 -3 c3 -5 17 -10 31
-10 15 0 38 -14 58 -35 19 -19 38 -35 43 -35 5 0 10 -12 11 -26 1 -14 9 -32
17 -40 17 -17 20 -28 5 -19 -5 3 -10 1 -10 -4 0 -6 6 -11 14 -11 11 0 13 -9 9
-34 -4 -28 -2 -35 16 -41 30 -9 27 -29 -3 -21 -14 3 -27 2 -31 -4 -3 -5 -13
-6 -23 -3 -11 4 -9 -1 7 -15 30 -27 34 -27 26 -2 -6 18 -4 19 19 9 14 -7 27
-18 30 -26 3 -8 1 -11 -4 -8 -14 8 -50 -4 -50 -17 0 -5 7 -8 15 -4 24 9 64
-15 80 -47 21 -42 19 -60 -4 -52 -13 4 -23 0 -30 -12 -5 -10 -13 -14 -17 -10
-4 4 0 13 9 20 14 10 15 17 5 49 -7 23 -17 36 -27 36 -9 0 -25 3 -36 8 -18 7
-19 6 -6 -9 12 -16 11 -20 -7 -37 -20 -19 -20 -19 -47 6 -24 22 -26 22 -20 4
5 -15 2 -20 -11 -20 -16 0 -16 -1 0 -19 11 -12 24 -17 34 -13 14 5 15 4 2 -10
-12 -13 -18 -14 -30 -4 -8 7 -22 17 -30 21 -13 8 -13 7 0 -10 14 -17 13 -18
-4 -12 -14 6 -16 5 -8 -5 10 -13 15 -40 13 -67 -1 -10 -5 -9 -18 5 -28 30 -53
30 -53 -1 0 -29 -14 -33 -29 -7 -10 16 -10 16 -11 0 0 -9 6 -21 14 -25 18 -10
25 -45 9 -50 -7 -3 -9 3 -6 16 4 16 1 21 -15 21 -11 0 -22 7 -26 15 -3 8 -12
15 -20 15 -7 0 -16 7 -20 15 -3 9 1 15 11 15 11 0 13 3 5 13 -6 7 -9 23 -5 35
5 20 2 22 -33 21 -22 -1 -31 -3 -22 -6 12 -3 17 -13 16 -29 -2 -23 -18 -35
-18 -14 0 6 -10 10 -22 10 -21 0 -21 -1 6 -29 21 -22 24 -30 13 -34 -23 -8
-46 14 -49 48 -2 23 1 30 15 29 32 -3 18 14 -18 20 -19 4 -35 11 -35 16 0 4
-3 17 -6 27 -4 13 -1 12 14 -6 19 -23 19 -23 24 -3 5 16 11 19 29 15 13 -3 31
-10 39 -16 8 -5 -2 6 -22 25 -32 30 -35 36 -23 49 12 12 11 19 -7 48 -12 19
-24 29 -26 22 -2 -7 3 -20 12 -30 19 -21 21 -38 3 -22 -20 16 -26 4 -17 -30
10 -33 6 -36 -16 -14 -9 8 -11 15 -5 15 5 0 8 12 6 28 -2 15 -4 30 -4 33 -2
12 -39 49 -50 49 -6 0 -11 -10 -12 -22 -1 -29 -8 -71 -14 -76 -8 -8 -65 59
-65 76 1 14 2 14 12 -3 14 -24 38 -49 42 -44 8 9 16 109 9 108 -4 -1 -21 3
-36 9 -23 10 -31 9 -43 -3 -21 -21 -23 -19 -18 11 4 22 2 24 -14 15 -10 -5
-27 -9 -37 -8 -13 1 -20 -4 -19 -15 1 -14 -3 -15 -28 -6 -21 7 -26 13 -17 19
10 6 10 10 0 23 -18 22 -54 20 -76 -4 -17 -19 -17 -20 1 -20 15 0 16 -2 4 -9
-8 -6 -17 -8 -20 -6 -8 5 -6 -58 3 -73 5 -7 2 -15 -8 -18 -13 -6 -14 -8 -3
-15 20 -13 22 -12 37 23 9 19 16 27 19 19 2 -7 -2 -17 -9 -22 -9 -6 -10 -9 -2
-9 6 0 19 10 29 23 l16 22 -5 -22 c-3 -13 -2 -25 3 -28 4 -2 6 -15 5 -27 -1
-13 0 -15 2 -5 2 9 11 17 20 17 11 0 13 3 5 13 -7 8 -6 18 4 32 14 18 16 18
25 3 12 -21 49 -12 49 13 0 20 24 26 35 9 3 -5 1 -10 -5 -10 -7 0 -10 -7 -6
-15 3 -9 0 -15 -8 -15 -8 0 -17 -7 -20 -16 -9 -25 -7 -64 4 -64 6 0 10 5 10
12 0 6 3 9 6 6 3 -4 1 -15 -5 -26 -8 -15 -7 -21 4 -26 19 -7 7 -38 -14 -34 -9
1 -29 -1 -45 -5 -21 -6 -27 -13 -23 -27 3 -10 0 -21 -7 -24 -7 -3 -6 -8 4 -15
11 -8 12 -11 2 -11 -7 0 -10 -4 -7 -10 3 -5 0 -7 -8 -4 -9 3 -13 13 -10 25 6
23 -3 24 -39 5 -29 -15 -37 -9 -16 12 9 9 8 12 -5 12 -9 0 -21 -8 -27 -17 -11
-17 -11 -17 -6 -1 6 21 -21 51 -37 41 -27 -17 -44 -10 -42 18 1 16 -2 26 -6
24 -4 -3 -6 6 -5 20 0 14 4 25 8 25 4 0 5 7 2 15 -5 11 -11 12 -24 5 -27 -14
-28 -13 -25 23 4 38 -12 72 -22 48 -5 -11 -7 -11 -14 0 -6 10 -9 11 -9 2 0 -7
-7 -13 -16 -13 -14 0 -14 2 0 15 8 8 19 15 25 15 6 0 11 3 11 8 0 4 12 15 28
24 18 12 22 18 11 18 -13 0 -16 8 -13 33 8 83 4 77 91 123 27 15 41 16 88 7
44 -8 57 -7 63 3 9 16 52 23 202 33 176 12 318 12 325 1z m525 -44 c0 -3 -4
-8 -10 -11 -5 -3 -10 -1 -10 4 0 6 5 11 10 11 6 0 10 -2 10 -4z m-46 -32 c3
-8 2 -12 -4 -9 -6 3 -10 10 -10 16 0 14 7 11 14 -7z m815 -48 c-1 -17 -5 -42
-9 -56 -7 -21 -8 -18 -9 20 -1 25 -4 56 -8 70 -6 22 -5 24 10 11 10 -8 17 -27
16 -45z m-728 8 c-9 -28 -9 -29 -10 -3 -1 14 2 29 6 32 11 12 13 2 4 -29z
m-20 -61 c-9 -16 -10 -14 -11 12 0 21 3 26 11 18 8 -8 8 -16 0 -30z m-1381 11
c0 -8 3 -13 8 -10 4 2 16 -2 27 -10 19 -14 19 -14 -1 -14 -10 0 -27 7 -36 14
-20 14 -24 36 -8 36 6 0 10 -7 10 -16z m1280 0 c0 -14 -3 -14 -15 -4 -8 7 -15
14 -15 16 0 2 7 4 15 4 8 0 15 -7 15 -16z m-1400 -18 c0 -2 -7 -7 -16 -10 -8
-3 -12 -2 -9 4 6 10 25 14 25 6z m1200 -38 c12 -17 26 -45 30 -63 6 -27 5 -32
-9 -28 -23 7 -71 79 -71 108 0 31 19 25 50 -17z m254 26 c3 -8 2 -12 -4 -9 -6
3 -10 10 -10 16 0 14 7 11 14 -7z m-1102 -26 c-7 -7 -12 -8 -12 -2 0 6 3 14 7
17 3 4 9 5 12 2 2 -3 -1 -11 -7 -17z m39 -11 c-8 -8 -11 -7 -11 4 0 9 3 19 7
23 4 4 9 2 11 -4 3 -7 -1 -17 -7 -23z m1096 1 c-3 -7 -5 -2 -5 12 0 14 2 19 5
13 2 -7 2 -19 0 -25z m-1005 -22 c-2 -5 -9 -1 -14 8 -5 9 -6 21 -2 28 9 14 25
-22 16 -36z m-142 4 c0 -5 -4 -10 -10 -10 -5 0 -10 5 -10 10 0 6 5 10 10 10 6
0 10 -4 10 -10z m1113 -43 c4 -31 3 -46 -3 -42 -6 3 -10 27 -10 52 0 57 5 53
13 -10z m-1358 33 c-3 -5 -11 -10 -16 -10 -6 0 -7 5 -4 10 3 6 11 10 16 10 6
0 7 -4 4 -10z m85 -50 c0 -5 -7 -10 -16 -10 -8 0 -12 5 -9 10 3 6 10 10 16 10
5 0 9 -4 9 -10z m380 -64 c0 -7 -7 -13 -15 -13 -15 0 -20 18 -9 30 9 9 24 -2
24 -17z m43 -35 c9 -12 9 -13 0 -7 -8 4 -13 1 -13 -9 0 -9 -4 -13 -10 -10 -5
3 -10 25 -9 48 0 38 1 39 10 18 5 -14 15 -32 22 -40z m24 29 c3 -17 10 -33 14
-36 5 -3 9 -10 9 -15 0 -19 -20 3 -35 38 -18 42 -18 43 -5 43 6 0 13 -14 17
-30z m643 16 c0 -3 -4 -8 -10 -11 -5 -3 -10 -1 -10 4 0 6 5 11 10 11 6 0 10
-2 10 -4z m-117 -66 c-7 -8 -22 24 -16 34 4 5 10 1 13 -10 4 -10 6 -21 3 -24z
m-23 0 c0 -5 -4 -10 -10 -10 -5 0 -10 5 -10 10 0 6 5 10 10 10 6 0 10 -4 10
-10z m-673 -32 c-3 -8 -6 -5 -6 6 -1 11 2 17 5 13 3 -3 4 -12 1 -19z m941 -3
c-3 -3 -9 2 -12 12 -6 14 -5 15 5 6 7 -7 10 -15 7 -18z m195 -31 c-5 -15 -7
-15 -15 0 -5 9 -6 26 -2 39 l7 22 8 -23 c5 -12 6 -29 2 -38z m-1118 6 c-4 -12
-9 -19 -12 -17 -3 3 -2 15 2 27 4 12 9 19 12 17 3 -3 2 -15 -2 -27z m14 -14
c-9 -8 -10 -7 -5 7 3 10 7 24 7 30 1 7 3 4 6 -7 3 -10 -1 -23 -8 -30z m171 35
c0 -6 -4 -13 -10 -16 -5 -3 -10 1 -10 9 0 9 5 16 10 16 6 0 10 -4 10 -9z m640
-23 c0 -6 -7 -5 -15 2 -8 7 -15 17 -15 22 0 6 7 5 15 -2 8 -7 15 -17 15 -22z
m-1030 12 c-20 -13 -33 -13 -25 0 3 6 14 10 23 10 15 0 15 -2 2 -10z m930 -8
c0 -5 -7 -17 -16 -28 -8 -10 -13 -13 -9 -6 3 6 1 12 -5 12 -6 0 -8 5 -5 10 4
6 11 8 16 5 5 -4 9 -1 9 4 0 6 2 11 5 11 3 0 5 -4 5 -8z m-646 -17 c4 -13 2
-13 -14 -5 -15 8 -20 6 -25 -11 -9 -27 -16 -20 -8 9 6 25 38 30 47 7z m536 1
c0 -23 -16 -27 -17 -5 -1 10 2 19 8 19 5 0 9 -6 9 -14z m-1259 -8 c1 -7 1 -19
0 -25 -1 -7 3 -22 10 -34 8 -15 8 -24 0 -28 -19 -12 -1 -51 23 -48 13 1 20 -3
18 -12 -2 -10 4 -12 20 -8 22 6 22 5 4 -8 -22 -16 -13 -35 17 -36 12 0 17 -3
10 -5 -19 -8 -4 -32 17 -27 28 7 56 -57 51 -114 -1 -7 -8 -10 -16 -7 -16 6
-19 -4 -9 -30 3 -9 10 -13 15 -10 5 3 6 -1 3 -9 -3 -8 1 -17 9 -20 9 -3 12
-16 9 -37 -3 -20 -9 -29 -17 -26 -9 3 -11 -2 -7 -16 3 -14 1 -19 -6 -14 -7 4
-12 13 -12 20 0 7 -8 21 -19 30 -17 16 -19 16 -25 0 -6 -15 24 -62 47 -72 19
-9 3 -22 -28 -22 -36 0 -41 -7 -36 -54 1 -11 -4 -23 -11 -28 -10 -6 -8 -8 4
-8 9 0 21 7 26 16 8 14 13 12 36 -12 14 -16 26 -32 26 -35 0 -4 8 -5 18 -3 9
3 29 -6 44 -21 15 -14 32 -25 37 -25 6 0 8 -6 5 -14 -4 -10 2 -12 20 -9 22 5
24 9 19 37 -7 39 -12 44 -22 27 -5 -7 -14 -10 -21 -6 -8 5 -6 12 9 26 19 18
20 18 50 -9 17 -14 31 -32 31 -40 0 -9 12 -12 43 -10 33 3 41 7 39 21 -2 14 5
17 40 17 30 0 49 6 60 19 15 17 14 20 -16 46 -23 20 -26 26 -11 22 11 -4 31
-8 45 -11 14 -2 44 -9 68 -15 47 -13 185 -5 176 10 -9 16 8 10 20 -7 8 -10 18
-13 30 -8 18 7 18 8 -2 15 -12 5 -22 14 -22 21 0 9 3 9 11 1 6 -6 20 -8 31 -5
14 3 18 10 14 27 -7 27 0 31 77 40 32 4 57 11 57 16 0 6 10 14 23 19 18 7 18
9 4 9 -23 1 -12 21 12 21 10 0 26 9 36 20 10 11 22 20 27 20 10 0 32 20 39 35
2 5 12 8 23 7 10 -2 15 1 12 6 -4 6 -2 13 4 17 5 3 10 -2 10 -12 0 -16 2 -16
18 3 9 12 29 29 45 39 15 9 27 26 27 36 0 10 4 21 10 24 6 3 7 -1 4 -9 -3 -9
-2 -16 4 -16 18 0 34 29 27 49 -4 14 0 23 13 30 25 13 63 10 59 -5 -2 -14 6
-16 28 -8 8 4 15 12 15 20 0 8 8 14 19 14 16 0 37 37 26 48 -5 5 -55 -29 -55
-38 0 -4 -11 -5 -23 -3 l-24 5 26 48 c14 27 29 46 33 44 3 -2 9 0 12 5 3 5 15
7 26 4 11 -3 17 -9 14 -14 -3 -5 1 -9 10 -9 8 0 17 6 19 13 3 6 6 3 6 -9 1
-11 -4 -25 -11 -32 -12 -12 -10 -13 14 -16 14 -1 16 -10 35 -209 l15 -168 -31
-97 c-17 -53 -58 -146 -92 -207 -33 -60 -94 -177 -135 -260 -66 -135 -81 -157
-146 -221 -40 -40 -88 -89 -107 -110 -55 -61 -107 -84 -193 -84 -40 0 -95 7
-123 15 -59 18 -249 114 -320 162 -92 62 -247 227 -325 345 -14 21 -28 38 -31
38 -3 0 -14 19 -25 43 -10 23 -34 63 -52 90 -21 29 -32 54 -28 63 4 9 1 23 -5
30 -12 15 -4 48 10 40 5 -3 14 1 21 8 8 11 9 20 0 36 -8 15 -8 25 -1 34 8 10
7 17 -4 26 -16 13 -21 55 -6 46 5 -4 7 3 4 14 -3 11 -9 20 -14 20 -5 0 -9 12
-9 28 0 15 -6 36 -14 47 -24 36 -27 87 -6 125 15 29 20 32 25 18 9 -22 35 -24
35 -2 0 8 -4 12 -10 9 -5 -3 -10 1 -10 9 0 9 -6 16 -14 16 -20 0 -21 9 -18 94
3 61 6 74 18 69 12 -4 14 0 10 21 -4 14 -8 37 -11 51 -3 14 -1 25 5 25 5 0 11
-6 11 -12z m1515 -30 l17 -33 -22 19 c-11 11 -21 25 -21 33 0 21 8 15 26 -19z
m-666 1 c0 -5 -4 -9 -10 -9 -5 0 -10 7 -10 16 0 8 5 12 10 9 6 -3 10 -10 10
-16z m-210 7 c0 -2 -7 -6 -15 -10 -8 -3 -15 -1 -15 4 0 6 7 10 15 10 8 0 15
-2 15 -4z m317 -56 c3 -22 -13 -28 -20 -7 -5 15 3 40 11 32 3 -3 7 -14 9 -25z
m83 10 c14 -14 16 -20 7 -20 -8 0 -22 9 -32 20 -10 11 -13 20 -7 20 7 0 21 -9
32 -20z m-1415 -38 c33 -60 38 -73 32 -78 -13 -14 -55 26 -59 55 -6 44 9 56
27 23z m1382 -14 c-3 -8 -6 -5 -6 6 -1 11 2 17 5 13 3 -3 4 -12 1 -19z m-1300
-123 c5 -16 -22 -55 -39 -55 -11 0 -10 13 2 44 11 29 28 34 37 11z m-62 -15
c-3 -5 -11 -10 -16 -10 -6 0 -7 5 -4 10 3 6 11 10 16 10 6 0 7 -4 4 -10z m605
-40 c0 -5 -2 -10 -4 -10 -3 0 -8 5 -11 10 -3 6 -1 10 4 10 6 0 11 -4 11 -10z
m-4 -45 c2 -18 -3 -25 -17 -25 -10 0 -19 3 -19 7 0 5 30 43 34 43 1 0 2 -11 2
-25z m-259 -261 c-9 -9 -28 6 -21 18 4 6 10 6 17 -1 6 -6 8 -13 4 -17z m337
-1 c10 -25 3 -23 -17 3 -13 18 -14 22 -3 18 8 -3 17 -13 20 -21z m-224 7 c0
-5 -4 -10 -10 -10 -5 0 -10 5 -10 10 0 6 5 10 10 10 6 0 10 -4 10 -10z m86
-47 c-4 -4 -11 -1 -16 7 -16 25 -11 35 7 17 9 -9 13 -20 9 -24z m64 0 c-1 -24
-2 -26 -11 -10 -5 9 -7 22 -4 27 10 17 15 11 15 -17z m-260 -8 c0 -8 -4 -15
-10 -15 -5 0 -10 7 -10 15 0 8 5 15 10 15 6 0 10 -7 10 -15z"/>
<path d="M2885 3840 c-3 -5 -28 -10 -56 -10 -55 0 -121 -25 -138 -52 -9 -15
-8 -18 9 -18 11 0 20 5 20 12 0 6 10 0 23 -14 21 -24 26 -25 107 -21 117 6
137 6 203 -4 31 -5 57 -5 57 -1 0 17 21 7 31 -14 9 -22 9 -22 4 2 -2 14 -5 30
-5 36 0 20 -45 63 -82 79 -42 17 -163 21 -173 5z m52 -6 c-3 -3 -12 -4 -19 -1
-8 3 -5 6 6 6 11 1 17 -2 13 -5z m133 -25 c0 -4 -7 -6 -15 -3 -8 4 -15 10 -15
15 0 4 7 6 15 3 8 -4 15 -10 15 -15z m20 -39 c0 -5 -4 -10 -9 -10 -6 0 -13 5
-16 10 -3 6 1 10 9 10 9 0 16 -4 16 -10z"/>
<path d="M2648 3753 c7 -3 16 -2 19 1 4 3 -2 6 -13 5 -11 0 -14 -3 -6 -6z"/>
<path d="M2708 3683 c7 -3 16 -2 19 1 4 3 -2 6 -13 5 -11 0 -14 -3 -6 -6z"/>
<path d="M2720 3660 c0 -5 -6 -7 -14 -4 -7 3 -16 -2 -19 -10 -4 -9 -15 -16
-25 -16 -22 0 -62 -35 -62 -55 0 -7 -6 -15 -12 -18 -10 -4 -10 -7 -1 -18 10
-10 16 -9 31 9 11 12 27 22 36 22 20 0 21 -33 1 -50 -11 -9 -12 -16 -2 -31 15
-25 37 -25 37 0 0 22 25 51 45 51 7 0 16 -16 19 -35 9 -44 37 -57 110 -53 l51
3 0 39 c0 37 2 40 30 43 23 3 37 -3 55 -22 13 -14 30 -25 38 -25 25 0 -18 40
-65 62 -23 10 -45 23 -48 28 -3 6 -43 10 -87 10 l-81 0 19 21 c17 19 26 21 79
15 33 -3 71 -8 85 -11 17 -4 14 -1 -10 11 -72 34 -210 57 -210 34z m20 -84 c0
-2 -7 -6 -15 -10 -8 -3 -15 -1 -15 4 0 6 7 10 15 10 8 0 15 -2 15 -4z m150
-32 c0 -8 -4 -12 -10 -9 -5 3 -10 10 -10 16 0 5 5 9 10 9 6 0 10 -7 10 -16z"/>
<path d="M3005 3591 c11 -5 39 -29 63 -55 46 -49 71 -61 52 -25 -7 11 -9 23
-6 26 9 9 -60 51 -95 57 -25 4 -28 4 -14 -3z"/>
<path d="M2158 3233 c-26 -7 -22 -18 7 -19 15 -1 25 3 25 12 0 14 -3 15 -32 7z"/>
<path d="M2161 3134 c0 -11 3 -14 6 -6 3 7 2 16 -1 19 -3 4 -6 -2 -5 -13z"/>
<path d="M2104 3054 c3 -9 6 -22 6 -30 0 -8 8 -14 18 -14 10 0 27 -7 39 -15
20 -14 23 -14 33 4 12 24 13 41 1 60 -7 11 -14 10 -40 -8 -31 -22 -31 -22 -31
-2 0 13 -6 21 -16 21 -11 0 -14 -5 -10 -16z"/>
<path d="M1480 2890 c0 -5 5 -10 11 -10 5 0 7 5 4 10 -3 6 -8 10 -11 10 -2 0
-4 -4 -4 -10z"/>
<path d="M1505 2840 c-15 -17 -16 -20 -3 -20 9 0 19 7 22 16 10 25 1 27 -19 4z"/>
<path d="M2462 2790 c-12 -12 -22 -25 -22 -29 0 -13 26 -32 33 -24 4 3 22 -2
41 -12 29 -16 37 -17 50 -6 20 17 20 40 0 69 -20 29 -72 30 -102 2z"/>
<path d="M3150 2594 c0 -8 5 -12 10 -9 6 3 10 10 10 16 0 5 -4 9 -10 9 -5 0
-10 -7 -10 -16z"/>
<path d="M1615 2590 c-3 -5 -1 -10 4 -10 6 0 11 5 11 10 0 6 -2 10 -4 10 -3 0
-8 -4 -11 -10z"/>
<path d="M3180 2585 c0 -8 -5 -15 -11 -15 -5 0 -7 -4 -4 -10 11 -17 25 -11 25
11 0 13 4 18 12 13 7 -4 8 -3 4 4 -10 17 -26 15 -26 -3z"/>
<path d="M2821 2414 c0 -11 3 -14 6 -6 3 7 2 16 -1 19 -3 4 -6 -2 -5 -13z"/>
<path d="M3037 2243 c-4 -3 -7 -11 -7 -17 0 -6 5 -5 12 2 6 6 9 14 7 17 -3 3
-9 2 -12 -2z"/>
<path d="M3030 2056 c0 -9 5 -16 10 -16 6 0 10 4 10 9 0 6 -4 13 -10 16 -5 3
-10 -1 -10 -9z"/>
<path d="M3005 1980 c-3 -5 -1 -10 4 -10 6 0 11 5 11 10 0 6 -2 10 -4 10 -3 0
-8 -4 -11 -10z"/>
<path d="M1690 3720 c0 -5 5 -10 10 -10 6 0 10 5 10 10 0 6 -4 10 -10 10 -5 0
-10 -4 -10 -10z"/>
<path d="M1520 3675 c0 -8 5 -15 10 -15 6 0 10 7 10 15 0 8 -4 15 -10 15 -5 0
-10 -7 -10 -15z"/>
<path d="M1570 3686 c0 -2 7 -6 15 -10 8 -3 15 -1 15 4 0 6 -7 10 -15 10 -8 0
-15 -2 -15 -4z"/>
<path d="M1990 2200 c19 -13 30 -13 30 0 0 6 -10 10 -22 10 -19 0 -20 -2 -8
-10z"/>
<path d="M1900 2110 c0 -5 5 -10 10 -10 6 0 10 5 10 10 0 6 -4 10 -10 10 -5 0
-10 -4 -10 -10z"/>
<path d="M2406 2054 c3 -27 14 -47 14 -25 0 6 13 -2 30 -19 16 -16 33 -30 37
-30 4 0 2 5 -4 11 -6 6 -9 17 -7 24 3 6 -2 18 -11 25 -8 7 -15 9 -15 4 0 -5
-7 2 -16 14 -20 29 -32 28 -28 -4z"/>
<path d="M2325 2050 c4 -6 11 -8 16 -5 14 9 11 15 -7 15 -8 0 -12 -5 -9 -10z"/>
<path d="M2550 2045 c0 -2 14 -11 30 -20 25 -13 30 -13 30 -1 0 7 -10 16 -22
20 -28 7 -38 7 -38 1z"/>
<path d="M2380 2031 c0 -5 5 -13 10 -16 6 -3 10 -2 10 4 0 5 -4 13 -10 16 -5
3 -10 2 -10 -4z"/>
<path d="M1879 2013 c-13 -16 -12 -17 4 -4 9 7 17 15 17 17 0 8 -8 3 -21 -13z"/>
<path d="M2436 1984 c-4 -11 1 -25 14 -38 l21 -21 -12 35 c-15 44 -15 44 -23
24z"/>
<path d="M2510 1984 c0 -7 27 -34 35 -34 3 0 1 9 -5 20 -10 18 -30 28 -30 14z"/>
<path d="M2510 1940 c0 -6 7 -13 15 -17 24 -9 27 1 5 15 -13 8 -20 8 -20 2z"/>
<path d="M2022 1910 c0 -14 2 -19 5 -12 2 6 2 18 0 25 -3 6 -5 1 -5 -13z"/>
<path d="M2620 1910 c-8 -5 -12 -12 -9 -15 4 -3 12 1 19 10 14 17 11 19 -10 5z"/>
<path d="M2755 1880 c3 -5 11 -10 16 -10 6 0 7 5 4 10 -3 6 -11 10 -16 10 -6
0 -7 -4 -4 -10z"/>
<path d="M2095 1850 c3 -5 8 -10 11 -10 2 0 4 5 4 10 0 6 -5 10 -11 10 -5 0
-7 -4 -4 -10z"/>
<path d="M2438 1823 c7 -3 16 -2 19 1 4 3 -2 6 -13 5 -11 0 -14 -3 -6 -6z"/>
<path d="M2020 1810 c-8 -5 -12 -12 -9 -15 4 -3 12 1 19 10 14 17 11 19 -10 5z"/>
<path d="M2553 1741 c4 -28 12 -34 14 -11 1 11 -2 22 -8 25 -5 4 -8 -3 -6 -14z"/>
<path d="M2975 1611 c-3 -5 -1 -12 5 -16 5 -3 10 1 10 9 0 18 -6 21 -15 7z"/>
<path d="M3045 1560 c-3 -5 -1 -10 4 -10 6 0 11 5 11 10 0 6 -2 10 -4 10 -3 0
-8 -4 -11 -10z"/>
<path d="M2966 1474 c-5 -14 -4 -15 9 -4 17 14 19 20 6 20 -5 0 -12 -7 -15
-16z"/>
<path d="M1480 1410 c0 -5 5 -10 11 -10 5 0 7 5 4 10 -3 6 -8 10 -11 10 -2 0
-4 -4 -4 -10z"/>
<path d="M1500 1323 c1 -14 27 -43 33 -37 7 7 -14 44 -25 44 -5 0 -8 -3 -8 -7z"/>
<path d="M1553 1206 c-7 -9 -10 -28 -6 -51 6 -37 6 -37 19 -14 9 18 9 26 1 32
-9 6 -9 10 1 14 13 5 17 33 5 33 -5 -1 -13 -7 -20 -14z"/>
<path d="M1850 972 c0 -12 6 -22 14 -22 8 0 17 -8 20 -18 6 -19 46 -48 46 -33
0 6 -4 12 -10 16 -5 3 -7 12 -4 20 9 22 -15 58 -30 46 -9 -7 -16 -7 -24 1 -9
9 -12 7 -12 -10z"/>
<path d="M1980 910 c0 -7 -7 -10 -15 -7 -29 12 -24 -11 8 -35 32 -25 110 -68
123 -68 3 0 -11 15 -32 34 -24 21 -39 43 -39 58 0 16 -7 24 -22 26 -13 2 -23
-2 -23 -8z"/>
<path d="M1470 4999 c-14 -17 -44 -49 -66 -72 -23 -23 -44 -51 -48 -62 -3 -11
14 2 41 31 62 65 103 116 103 126 0 12 -3 10 -30 -23z"/>
<path d="M1323 4823 c-3 -10 -8 -22 -11 -28 -3 -5 4 -1 16 9 24 20 28 36 12
36 -6 0 -13 -8 -17 -17z"/>
<path d="M1292 4768 c-7 -7 -12 -19 -12 -27 0 -11 5 -8 16 7 18 25 15 39 -4
20z"/>
<path d="M3670 1585 c-8 -9 -8 -15 -2 -15 12 0 26 19 19 26 -2 2 -10 -2 -17
-11z"/>
</g>
</svg>
