<?xml version="1.0" encoding="iso-8859-1"?>
<!-- Uploaded to: SVG Repo, www.svgrepo.com, Generator: SVG Repo Mixer Tools -->
<svg height="800px" width="800px" version="1.1" id="Layer_1" xmlns="http://www.w3.org/2000/svg" xmlns:xlink="http://www.w3.org/1999/xlink" 
	 viewBox="0 0 512 512" xml:space="preserve">
<path style="fill:#FF9B5F;" d="M453.898,447.992c0,13.136-10.648,23.783-23.783,23.783H274.05v-47.567h156.064
	C443.249,424.209,453.898,434.858,453.898,447.992z"/>
<path style="fill:#84C688;" d="M191.695,139.899c0,72.406,58.696,131.101,131.101,131.101V8.798
	C250.391,8.798,191.695,67.494,191.695,139.899z"/>
<path style="fill:#559156;" d="M322.796,8.798v262.203c72.406,0,131.101-58.696,131.101-131.101S395.202,8.798,322.796,8.798z"/>
<ellipse style="fill:#58AB5B;" cx="322.8" cy="139.896" rx="87.399" ry="131.105"/>
<path style="fill:#BF7447;" d="M322.796,368.715c-52.643,0-95.319,42.676-95.319,95.319h190.638
	C418.116,411.392,375.44,368.715,322.796,368.715z"/>
<path style="fill:#FEBB8E;" d="M295.837,456.89h134.277c13.136,0,23.783,10.648,23.783,23.784s-10.648,23.783-23.783,23.783
	l-149.944-0.133c-5.428-0.004-13.74-2.185-18.471-4.845l-152.563-94.212c-4.731-2.66-13.044-4.837-18.471-4.837H60.79v-95.119h51.2
	l97.498,39.871L295.837,456.89z"/>
<path style="fill:#FCD5A2;" d="M172.071,305.312c16.284,0,39.027,9.421,50.542,20.934l90.042,90.042
	c9.288,9.288,9.288,24.347,0,33.635s-24.347,9.288-33.635,0l-72.683-72.683h-21.359c-40.31,0-72.987-31.619-72.987-71.928
	L172.071,305.312L172.071,305.312z"/>
<g>
	<path style="fill:#1D2328;" d="M428.771,415.412h-78.51c-4.513,0-8.17,3.658-8.17,8.17c0,4.512,3.657,8.17,8.17,8.17h78.51
		c8.609,0,15.614,7.004,15.614,15.613c0,1.528-0.223,3.027-0.649,4.459c-4.467-2.378-9.56-3.732-14.965-3.732H322.379
		c2.65-4.717,4.068-10.055,4.068-15.614c0-8.535-3.324-16.559-9.359-22.594l-90.042-90.042
		c-13.081-13.081-37.819-23.328-56.319-23.328H59.445c-4.513,0-8.17,3.658-8.17,8.17s3.657,8.17,8.17,8.17h111.28
		c14.215,0,34.714,8.49,44.764,18.542l90.043,90.042c2.949,2.949,4.572,6.87,4.572,11.04c0,4.17-1.623,8.091-4.572,11.04
		c-6.087,6.087-15.994,6.088-22.081,0l-73.179-73.18c-3.191-3.19-8.363-3.192-11.555,0c-3.191,3.191-3.191,8.364,0,11.554
		l73.179,73.18c6.083,6.083,14.03,9.187,22.018,9.33c0.192,0.013,0.382,0.029,0.577,0.029H428.77
		c8.609,0,15.614,7.003,15.614,15.613c0,8.609-7.005,15.613-15.606,15.613l-149.944-0.133c-3.998-0.003-10.78-1.77-14.346-3.726
		l-152.403-94.113c-0.095-0.059-0.192-0.115-0.289-0.17c-5.969-3.354-15.63-5.885-22.476-5.885H59.445
		c-4.513,0-8.17,3.658-8.17,8.17s3.657,8.17,8.17,8.17h29.876c3.996,0,10.775,1.762,14.337,3.716l152.404,94.113
		c0.095,0.059,0.192,0.115,0.29,0.17c5.966,3.354,15.625,5.887,22.467,5.893L428.771,512c17.619,0,31.954-14.335,31.954-31.953
		c0-5.963-1.646-11.547-4.502-16.329c2.928-4.904,4.502-10.523,4.502-16.351C460.725,429.747,446.39,415.412,428.771,415.412z"/>
	<path style="fill:#1D2328;" d="M309.661,360.572c-4.484,0.501-7.714,4.542-7.214,9.025c0.5,4.484,4.535,7.718,9.026,7.214
		c3.29-0.367,6.647-0.553,9.979-0.553c20.992,0,41.372,7.454,57.388,20.99c1.534,1.296,3.406,1.93,5.269,1.93
		c2.323,0,4.629-0.985,6.244-2.897c2.913-3.447,2.479-8.602-0.967-11.515c-16.873-14.261-37.84-22.801-59.763-24.513V228.069
		l42.829-39.091c3.333-3.042,3.569-8.209,0.527-11.543c-3.044-3.332-8.211-3.569-11.543-0.527l-31.815,29.037v-52.541
		c0-4.512-3.657-8.17-8.17-8.17c-4.513,0-8.17,3.658-8.17,8.17v52.541l-31.814-29.037c-3.332-3.04-8.497-2.806-11.543,0.526
		c-3.042,3.333-2.805,8.5,0.527,11.543l42.828,39.091v132.17C312.069,360.331,310.861,360.438,309.661,360.572z"/>
	<path style="fill:#1D2328;" d="M286.742,274.18c0.682,0.174,1.364,0.258,2.036,0.258c3.642,0,6.962-2.452,7.909-6.142
		c1.121-4.371-1.513-8.823-5.883-9.945c-54.334-13.941-92.282-62.908-92.282-119.08C198.521,71.487,253.668,16.34,321.452,16.34
		c67.786,0,122.932,55.147,122.932,122.931c0,56.171-37.947,105.139-92.281,119.08c-4.371,1.122-7.005,5.574-5.883,9.945
		c1.122,4.369,5.572,7.007,9.945,5.884c61.563-15.797,104.559-71.273,104.559-134.909C460.725,62.477,398.247,0,321.452,0
		S182.18,62.477,182.18,139.272C182.18,202.908,225.178,258.385,286.742,274.18z"/>
</g>
</svg>