<?xml version="1.0" encoding="iso-8859-1"?>
<!-- Uploaded to: SVG Repo, www.svgrepo.com, Generator: SVG Repo Mixer Tools -->
<svg height="800px" width="800px" version="1.1" id="Layer_1" xmlns="http://www.w3.org/2000/svg" xmlns:xlink="http://www.w3.org/1999/xlink" 
	 viewBox="0 0 503.467 503.467" xml:space="preserve">
<g transform="translate(12 1)">
	<path style="fill:#FFE079;" d="M359.2,156.867C359.2,91.16,305.44,37.4,239.733,37.4c-65.707,0-119.467,53.76-119.467,119.467
		s53.76,119.467,119.467,119.467C305.44,276.333,359.2,222.573,359.2,156.867 M393.333,156.867
		c0,73.387-51.2,133.973-119.467,149.333c0,0-17.067,4.267-34.133,4.267c-84.48,0-153.6-69.12-153.6-153.6s69.12-153.6,153.6-153.6
		S393.333,72.387,393.333,156.867"/>
	<path style="fill:#50DD8E;" d="M205.6,455.533v25.6H180c0,0-25.6,0-42.667-17.067C120.267,447,120.267,421.4,120.267,421.4v-25.6
		h25.6c0,0,25.6,0,42.667,17.067C205.6,429.933,205.6,455.533,205.6,455.533z M359.2,344.6v25.6c0,0,0,25.6-17.067,42.667
		c-17.067,17.067-42.667,17.067-42.667,17.067h-25.6v-25.6c0,0,0-25.6,17.067-42.667S333.6,344.6,333.6,344.6H359.2z"/>
	<path style="fill:#FFE079;" d="M239.733,37.4C305.44,37.4,359.2,91.16,359.2,156.867s-53.76,119.467-119.467,119.467
		c-65.707,0-119.467-53.76-119.467-119.467S174.027,37.4,239.733,37.4"/>
</g>
<path style="fill:#51565F;" d="M251.733,503.467c-2.56,0-4.267-1.707-4.267-4.267V315.733c-85.333-2.56-153.6-72.533-153.6-157.867
	C93.867,70.827,164.693,0,251.733,0S409.6,70.827,409.6,157.867c0,74.24-50.347,137.387-122.88,153.6
	c-2.56,0.853-4.267-0.853-5.12-3.413c-0.853-2.56,0.853-4.267,3.413-5.12c68.267-15.36,116.053-75.093,116.053-145.92
	c0-81.92-67.413-149.333-149.333-149.333S102.4,75.093,102.4,157.013s67.413,149.333,149.333,149.333
	c2.56,0,4.267,1.707,4.267,4.267v187.733C256,501.76,254.293,503.467,251.733,503.467z M217.6,486.4H192
	c-0.853,0-27.307,0-46.08-17.92C127.147,450.56,128,424.107,128,422.4v-25.6c0-2.56,1.707-4.267,4.267-4.267h25.6
	c0.853,0,27.307,0,46.08,17.92c18.773,17.92,17.92,44.373,17.92,46.08v25.6C221.867,484.693,220.16,486.4,217.6,486.4z
	 M136.533,401.067V422.4c0,0,0,23.893,16.213,39.253c15.36,15.36,39.253,16.213,39.253,16.213h21.333v-21.333
	c0,0,0-23.893-16.213-39.253c-15.36-15.36-39.253-16.213-39.253-16.213H136.533z M311.467,435.2h-25.6
	c-2.56,0-4.267-1.707-4.267-4.267v-25.6c0-0.853,0-27.307,17.92-46.08c17.92-18.773,44.373-17.92,46.08-17.92h25.6
	c2.56,0,4.267,1.707,4.267,4.267v25.6c0,0.853,0,27.307-17.92,46.08C339.627,436.053,312.32,435.2,311.467,435.2z M290.133,426.667
	h21.333c0,0,23.893,0,39.253-16.213c15.36-15.36,16.213-39.253,16.213-39.253v-21.333H345.6c0,0-23.893,0-39.253,16.213
	c-15.36,15.36-16.213,39.253-16.213,39.253V426.667z M251.733,281.6C183.467,281.6,128,226.133,128,157.867
	S183.467,34.133,251.733,34.133S375.467,89.6,375.467,157.867S320,281.6,251.733,281.6z M251.733,42.667
	c-63.147,0-115.2,52.053-115.2,115.2s52.053,115.2,115.2,115.2s115.2-52.053,115.2-115.2S314.88,42.667,251.733,42.667z
	 M251.733,221.867c-2.56,0-4.267-1.707-4.267-4.267v-4.267c-14.507-1.707-25.6-14.507-25.6-29.867c0-2.56,1.707-4.267,4.267-4.267
	s4.267,1.707,4.267,4.267c0,11.947,9.387,21.333,21.333,21.333c11.947,0,21.333-9.387,21.333-21.333s-9.387-21.333-21.333-21.333
	c-16.213,0-29.867-13.653-29.867-29.867c0-15.36,11.093-27.307,25.6-29.867v-4.267c0-2.56,1.707-4.267,4.267-4.267
	c2.56,0,4.267,1.707,4.267,4.267v4.267c14.507,1.707,25.6,14.507,25.6,29.867c0,2.56-1.707,4.267-4.267,4.267
	s-4.267-1.707-4.267-4.267c0-11.947-9.387-21.333-21.333-21.333c-11.947,0-21.333,9.387-21.333,21.333s9.387,21.333,21.333,21.333
	c16.213,0,29.867,13.653,29.867,29.867c0,15.36-11.093,27.307-25.6,29.867v4.267C256,220.16,254.293,221.867,251.733,221.867z"/>
</svg>