<?xml version="1.0" standalone="no"?>
<!DOCTYPE svg PUBLIC "-//W3C//DTD SVG 20010904//EN"
 "http://www.w3.org/TR/2001/REC-SVG-20010904/DTD/svg10.dtd">
<svg version="1.0" xmlns="http://www.w3.org/2000/svg"
 width="307.000000pt" height="183.000000pt" viewBox="0 0 307.000000 183.000000"
 preserveAspectRatio="xMidYMid meet">

<g transform="translate(0.000000,183.000000) scale(0.100000,-0.100000)"
fill="#000000" stroke="none">
<path d="M522 1519 c-89 -17 -215 -117 -260 -206 -28 -54 -45 -147 -37 -202 8
-54 42 -134 85 -198 28 -41 30 -47 16 -62 -29 -32 -39 -77 -26 -116 12 -36 56
-75 84 -75 9 0 27 -21 40 -49 20 -38 35 -53 70 -70 31 -14 46 -27 46 -40 0
-41 86 -102 124 -88 10 4 16 -5 20 -28 13 -65 94 -96 146 -55 14 11 29 20 34
20 5 0 28 -18 52 -40 34 -31 51 -40 80 -40 47 0 94 45 94 89 0 28 3 31 31 31
44 0 89 47 89 94 0 35 1 36 36 36 47 0 94 45 94 89 0 28 3 31 31 31 20 0 40
10 60 29 37 38 39 87 4 129 l-24 29 23 34 c64 97 97 242 76 337 -35 156 -130
257 -283 298 -95 25 -193 11 -284 -42 l-42 -24 -67 36 c-104 58 -203 75 -312
53z m209 -29 c35 -11 85 -32 111 -47 48 -28 240 -209 258 -243 34 -63 -16
-140 -91 -140 -40 0 -47 5 -145 101 -70 70 -107 99 -116 93 -7 -4 -65 -58
-128 -120 -191 -186 -255 -244 -265 -241 -5 2 -25 27 -42 57 -91 149 -83 318
20 431 106 117 248 156 398 109z m559 -36 c156 -70 244 -263 195 -429 -22 -76
-72 -175 -88 -175 -7 0 -39 27 -72 61 -33 33 -73 67 -89 76 -59 31 -136 -13
-136 -78 0 -23 -5 -29 -20 -29 -29 0 -78 -27 -90 -49 -5 -11 -10 -33 -10 -50
0 -28 -3 -31 -32 -31 -51 -1 -98 -49 -98 -99 0 -15 -6 -21 -21 -21 -52 0 -98
-47 -99 -101 0 -30 -7 -43 -35 -68 -43 -38 -64 -39 -104 -5 -44 37 -43 81 2
120 82 70 217 200 217 207 0 17 -20 1 -136 -108 -64 -60 -123 -114 -130 -118
-35 -20 -99 25 -110 79 -5 28 2 37 125 148 72 65 131 120 131 122 0 9 -18 3
-36 -13 -10 -10 -57 -52 -104 -93 -47 -41 -98 -87 -115 -102 -35 -33 -58 -30
-97 13 -38 40 -38 87 0 125 62 65 404 389 414 393 6 2 49 -35 97 -82 96 -95
115 -107 163 -107 87 1 144 92 104 168 -8 15 -55 67 -105 115 -50 49 -89 92
-86 98 10 15 84 50 128 59 70 15 170 4 237 -26z m41 -581 c92 -90 109 -112
109 -137 -1 -37 -18 -62 -52 -75 -38 -14 -71 7 -175 115 -102 106 -114 135
-71 181 43 46 70 34 189 -84z m-119 -121 c91 -91 108 -113 108 -139 0 -23 -9
-38 -31 -57 -17 -14 -35 -26 -40 -26 -24 0 -60 28 -151 118 -86 85 -98 101
-98 131 0 45 33 81 74 81 25 0 48 -18 138 -108z m-131 -118 c110 -108 125
-135 102 -183 -17 -33 -48 -47 -86 -37 -12 3 -68 52 -125 109 -110 113 -119
132 -81 181 15 19 29 26 56 26 32 0 47 -11 134 -96z m-120 -131 c93 -91 109
-112 109 -138 0 -20 -8 -39 -22 -52 -51 -47 -83 -33 -200 85 -85 85 -98 103
-98 132 0 44 33 80 73 80 25 0 50 -19 138 -107z m-169 -80 c26 -26 48 -51 48
-57 0 -17 -35 -35 -67 -36 -58 0 -95 79 -56 122 9 10 19 18 22 18 3 0 27 -21
53 -47z"/>
</g>
</svg>
