<?xml version="1.0" encoding="iso-8859-1"?>
<!-- Uploaded to: SVG Repo, www.svgrepo.com, Generator: SVG Repo Mixer Tools -->
<svg height="800px" width="800px" version="1.1" id="Layer_1" xmlns="http://www.w3.org/2000/svg" xmlns:xlink="http://www.w3.org/1999/xlink" 
	 viewBox="0 0 504.32 504.32" xml:space="preserve">
<g transform="translate(1 1)">
	<path style="fill:#FF7474;" d="M249.88,47.64c26.453-26.453,63.147-43.52,103.253-43.52c80.213,0,145.067,64.853,145.067,145.067
		c0,38.4-13.653,85.333-35.84,116.053c0,0-14.507,17.92-23.893,24.747l0,0c-15.36-7.68-32.427-12.8-51.2-12.8
		c-61.44,0-110.933,49.493-110.933,110.933c0,2.56,0,5.973,0,8.533l0,0H156.867C139.8,388.12,114.2,362.52,114.2,362.52
		C35.693,284.867,3.267,204.653,3.267,149.187C3.267,68.973,68.12,4.12,148.333,4.12c28.16,0,54.613,7.68,76.8,22.187
		c0,0,13.653,6.827,23.893,20.48L249.88,47.64z"/>
	<path style="fill:#50DD8E;" d="M276.333,396.653H3.267v102.4h307.2v-30.72C291.693,449.56,278.893,424.813,276.333,396.653
		L276.333,396.653z"/>
	<path style="fill:#FFE079;" d="M438.467,289.987c35.84,18.773,59.733,55.467,59.733,98.133c0,61.44-49.493,110.933-110.933,110.933
		c-58.027,0-105.813-45.227-110.933-102.4c0-2.56,0-5.973,0-8.533c0-61.44,49.493-110.933,110.933-110.933
		C406.04,277.187,423.107,281.453,438.467,289.987"/>
</g>
<path style="fill:#51565F;" d="M388.267,504.32c-63.147,0-115.2-52.053-115.2-115.2s52.053-115.2,115.2-115.2
	s115.2,52.053,115.2,115.2S451.413,504.32,388.267,504.32z M388.267,282.453c-58.88,0-106.667,47.787-106.667,106.667
	s47.787,106.667,106.667,106.667S494.933,448,494.933,389.12S447.147,282.453,388.267,282.453z M294.4,504.32H192
	c-2.56,0-4.267-1.707-4.267-4.267s1.707-4.267,4.267-4.267h102.4c2.56,0,4.267,1.707,4.267,4.267S296.96,504.32,294.4,504.32z
	 M157.867,504.32c-2.56,0-4.267-1.707-4.267-4.267v-102.4c0-2.56,1.707-4.267,4.267-4.267c2.56,0,4.267,1.707,4.267,4.267v102.4
	C162.133,502.613,160.427,504.32,157.867,504.32z M123.733,504.32H4.267c-2.56,0-4.267-1.707-4.267-4.267s1.707-4.267,4.267-4.267
	h119.467c2.56,0,4.267,1.707,4.267,4.267S126.293,504.32,123.733,504.32z M261.973,470.187H192c-2.56,0-4.267-1.707-4.267-4.267
	c0-2.56,1.707-4.267,4.267-4.267h69.973c2.56,0,4.267,1.707,4.267,4.267C266.24,468.48,264.533,470.187,261.973,470.187z
	 M123.733,470.187H4.267c-2.56,0-4.267-1.707-4.267-4.267c0-2.56,1.707-4.267,4.267-4.267h119.467c2.56,0,4.267,1.707,4.267,4.267
	C128,468.48,126.293,470.187,123.733,470.187z M388.267,453.12c-2.56,0-4.267-1.707-4.267-4.267v-4.267
	c-14.507-1.707-25.6-14.507-25.6-29.867c0-2.56,1.707-4.267,4.267-4.267s4.267,1.707,4.267,4.267
	c0,11.947,9.387,21.333,21.333,21.333c11.947,0,21.333-9.387,21.333-21.333s-9.387-21.333-21.333-21.333
	c-16.213,0-29.867-13.653-29.867-29.867c0-15.36,11.093-27.307,25.6-29.867v-4.267c0-2.56,1.707-4.267,4.267-4.267
	s4.267,1.707,4.267,4.267v4.267c14.507,1.707,25.6,14.507,25.6,29.867c0,2.56-1.707,4.267-4.267,4.267s-4.267-1.707-4.267-4.267
	c0-11.947-9.387-21.333-21.333-21.333c-11.947,0-21.333,9.387-21.333,21.333c0,11.947,9.387,21.333,21.333,21.333
	c16.213,0,29.867,13.653,29.867,29.867c0,15.36-11.093,27.307-25.6,29.867v4.267C392.533,451.413,390.827,453.12,388.267,453.12z
	 M247.467,436.053H192c-2.56,0-4.267-1.707-4.267-4.267c0-2.56,1.707-4.267,4.267-4.267h55.467c2.56,0,4.267,1.707,4.267,4.267
	C251.733,434.346,250.027,436.053,247.467,436.053z M123.733,436.053H4.267c-2.56,0-4.267-1.707-4.267-4.267
	c0-2.56,1.707-4.267,4.267-4.267h119.467c2.56,0,4.267,1.707,4.267,4.267C128,434.346,126.293,436.053,123.733,436.053z
	 M243.2,401.92H192c-2.56,0-4.267-1.707-4.267-4.267c0-2.56,1.707-4.267,4.267-4.267h51.2c2.56,0,4.267,1.707,4.267,4.267
	C247.467,400.213,245.76,401.92,243.2,401.92z M123.733,401.92H4.267c-2.56,0-4.267-1.707-4.267-4.267
	c0-2.56,1.707-4.267,4.267-4.267h119.467c2.56,0,4.267,1.707,4.267,4.267C128,400.213,126.293,401.92,123.733,401.92z
	 M115.2,367.787c-0.853,0-2.56,0-3.413-0.853C41.813,296.96,0,215.893,0,150.187C0,68.267,67.413,0.853,149.333,0.853
	c28.16,0,55.467,7.68,79.36,23.04c1.707,0.853,2.56,4.267,1.707,5.973c-0.853,1.707-4.267,2.56-5.973,1.707
	C202.24,17.92,176.64,10.24,150.187,10.24c-77.653,0-140.8,63.147-140.8,140.8c0,63.147,40.96,142.507,109.227,209.92
	c1.707,1.707,1.707,4.267,0,5.973C116.907,367.787,116.053,367.787,115.2,367.787z M463.36,270.507c-0.853,0-1.707,0-2.56-0.853
	c-1.707-1.707-2.56-4.267-0.853-5.973c21.333-28.16,34.987-74.24,34.987-113.493c0-77.653-63.147-140.8-140.8-140.8
	c-55.467,0-105.813,32.427-128,82.773c-0.853,2.56-3.413,3.413-5.973,1.707c-2.56-0.853-3.413-3.413-1.707-5.973
	C242.347,34.133,296.107,0,354.987,0c81.92,0,149.333,67.413,149.333,149.333c0,40.96-14.507,88.747-36.693,118.613
	C465.92,269.653,464.213,270.507,463.36,270.507z M444.587,128.853c-1.707,0-3.413-0.853-4.267-3.413
	c-8.533-29.867-32.427-53.76-61.44-61.44c-2.56-0.853-3.413-3.413-2.56-5.12c0.853-1.707,3.413-3.413,5.12-2.56
	c32.427,9.387,58.88,34.987,67.413,67.413c0.853,2.56-0.853,4.267-2.56,5.12C445.44,128.853,444.587,128.853,444.587,128.853z"/>
</svg>