<svg xmlns="http://www.w3.org/2000/svg" enable-background="new 0 0 512 512" viewBox="0 0 512 512" id="sadaqah"><path d="M509.095,73.253c-0.509-13.219-9.35-24.367-21.984-27.736l-13.571-3.671C390.701,19.362,287.603-8.622,204.63,27.014
		L63.959,87.283c-19.692,8.427-24.389,30.083-17.557,46.153c6.144,14.44,22.128,24.88,44.036,15.625l83.798-35.469
		c-0.396,2.013-0.604,4.09-0.604,6.211c0,17.877,14.544,32.42,32.42,32.42h99.774c43.676,40.451,73.831,58.071,112.165,58.066
		c20.894,0,44.221-5.234,73.484-14.859c12.778-4.09,21.016-15.832,20.502-29.173L509.095,73.253z M487.196,182.251
		c-73.835,24.277-105.62,21.71-173.915-42.023c-1.284-1.198-2.973-1.86-4.729-1.86H206.053c-10.238,0-18.566-8.328-18.566-18.566
		c0-6.346,3.274-11.985,8.242-15.336c0.311-0.167,0.604-0.351,0.878-0.559c2.788-1.667,6.049-2.639,9.526-2.675l133.874-1.567
		c3.828-0.045,6.891-3.18,6.846-7.008c-0.045-3.824-3.283-6.873-7.008-6.846L205.99,87.378c-6.162,0.054-11.927,1.829-16.832,4.851
		l-104.12,44.068c-17.579,7.436-24.259-4.464-25.885-8.283c-4.171-9.814-1.477-22.971,10.26-27.993l140.68-60.269
		c78.537-33.74,179.05-6.454,259.817,15.467l13.616,3.689c6.846,1.82,11.445,7.661,11.72,14.827l2.883,93.004
		C498.398,173.838,494.029,180.062,487.196,182.251z M309.331,256.028c0-37.127-30.2-67.327-67.327-67.327
		s-67.327,30.2-67.327,67.327s30.2,67.331,67.327,67.331S309.331,293.155,309.331,256.028z M194.251,279.953h21.999
		c3.828,0,6.927-3.099,6.927-6.927s-3.099-6.927-6.927-6.927h-26.736c-0.625-3.265-0.982-6.625-0.982-10.071
		c0-29.484,23.989-53.472,53.472-53.472c21.394,0,39.843,12.661,48.385,30.857h-47.079c-3.828,0-6.927,3.099-6.927,6.927
		c0,3.828,3.099,6.927,6.927,6.927h50.729c0.221,0,0.429-0.045,0.645-0.065c0.481,2.878,0.792,5.814,0.792,8.826
		c0,29.488-23.989,53.477-53.472,53.477C221.126,309.504,203.051,297.447,194.251,279.953z M421.685,362.999l-83.965,35.492
		c0.419-2.058,0.635-4.189,0.635-6.364c0-17.877-14.544-32.42-32.42-32.42h-99.652c-67.601-62.363-102.823-70.358-185.878-43.171
		C7.87,320.769-0.323,332.516,0.01,345.812l3.009,92.91c0.342,13.102,9.161,24.277,21.989,27.822l13.26,3.585
		c54.36,14.751,117.421,31.862,177.838,31.862c31.695-0.005,62.669-4.716,91.257-16.944l140.653-60.39
		c19.741-8.4,24.448-30.092,17.597-46.212C459.505,364.071,443.561,353.712,421.685,362.999z M442.57,411.909l-140.666,60.399
		c-78.654,33.645-179.212,6.364-260.01-15.553l-13.242-3.585c-6.972-1.923-11.593-7.738-11.778-14.854l-3.009-92.905
		c-0.185-7.252,4.126-13.431,10.913-15.728c27.024-8.841,48.41-14.102,68.025-14.102c33.988,0,62.66,15.8,106.048,56.13
		c1.279,1.189,2.964,1.851,4.716,1.851h102.368c10.238,0,18.566,8.328,18.566,18.566c0,10.139-8.36,18.471-18.647,18.57
		l-133.744,1.567c-3.828,0.045-6.891,3.18-6.846,7.008c0.045,3.824,3.247,7.076,7.008,6.846l133.73-1.567
		c5.846-0.054,11.337-1.657,16.075-4.405c0.054-0.023,0.104-0.041,0.153-0.063l104.859-44.324
		c17.548-7.459,24.16,4.319,25.768,8.107C457.046,393.717,454.353,406.896,442.57,411.909z"></path></svg>